<?xml version="1.0" encoding="utf-8"?>
<!-- Generator: Adobe Illustrator 24.0.3, SVG Export Plug-In . SVG Version: 6.00 Build 0)  -->
<svg version="1.1" id="Layer_1" xmlns="http://www.w3.org/2000/svg" xmlns:xlink="http://www.w3.org/1999/xlink" x="0px" y="0px"
	 viewBox="0 0 828.76 146.63" style="enable-background:new 0 0 828.76 146.63;" xml:space="preserve">
<g>
	<g>
		<path d="M86.26,57.04h-11.1V89.6h11.1c10.43,0,17.26-6.23,17.26-16.28C103.51,63.26,96.69,57.04,86.26,57.04z"/>
		<path d="M0,0v146.63h357.79V0H0z M86.86,99.58H63V47.06h23.86c17.18,0,28.96,10.35,28.96,26.26
			C115.82,89.22,104.04,99.58,86.86,99.58z M207.35,99.58H194.3l-11.55-35.57l-11.93,35.57h-12.98l-17.26-52.52h12.61l11.85,36.92
			l12.38-36.92h11.25l12.01,37.22l12.23-37.22h11.63L207.35,99.58z M294.79,99.58h-40.67V47.06h39.69v9.75H266.2v11.4h24.39v9.45
			H266.2v12.15h28.59V99.58z"/>
	</g>
	<g>
		<path d="M412,47.06h20.78c16.66,0,27.91,10.95,27.91,26.26c0,15.31-11.25,26.26-27.91,26.26H412V47.06z M432.48,96.13
			c14.86,0,24.38-9.45,24.38-22.81c0-13.35-9.53-22.81-24.38-22.81h-16.66v45.62H432.48z"/>
		<path d="M495.69,47.06h3.83v52.52h-3.83V47.06z"/>
		<path d="M576.89,73.54h3.68V93.2c-4.73,4.5-11.55,6.75-18.76,6.75c-15.83,0-27.46-11.33-27.46-26.63
			c0-15.31,11.63-26.63,27.53-26.63c7.58,0,14.26,2.4,18.91,7.2l-2.4,2.55c-4.58-4.5-10.05-6.23-16.43-6.23
			c-13.65,0-23.78,9.9-23.78,23.11c0,13.13,10.13,23.11,23.78,23.11c5.55,0,10.65-1.35,14.93-4.8V73.54z"/>
		<path d="M617.96,47.06h3.83v52.52h-3.83V47.06z"/>
		<path d="M671.78,50.51h-18.91v-3.45h41.64v3.45h-18.91v49.07h-3.83V50.51z"/>
		<path d="M752.57,84.8h-30.46l-6.68,14.78h-4.13l24.16-52.52h3.83l24.16,52.52h-4.13L752.57,84.8z M751.15,81.57l-13.8-30.31
			l-13.73,30.31H751.15z"/>
		<path d="M794.7,47.06h3.83v49.07h30.24v3.45H794.7V47.06z"/>
	</g>
</g>
</svg>
